<?xml version="1.0" standalone="no"?>
<!DOCTYPE svg PUBLIC "-//W3C//DTD SVG 20010904//EN"
 "http://www.w3.org/TR/2001/REC-SVG-20010904/DTD/svg10.dtd">
<svg version="1.0" xmlns="http://www.w3.org/2000/svg"
 width="512.000000pt" height="512.000000pt" viewBox="0 0 512.000000 512.000000"
 preserveAspectRatio="xMidYMid meet">
<metadata>
Created by potrace 1.16, written by Peter Selinger 2001-2019
</metadata>
<g transform="translate(0.000000,512.000000) scale(0.100000,-0.100000)"
fill="#ff72e0" stroke="none">
<path d="M1840 4134 c-451 -14 -826 -41 -986 -74 -143 -28 -211 -65 -309 -163
-92 -92 -124 -149 -154 -272 -117 -473 -117 -1657 0 -2130 30 -123 62 -180
154 -272 130 -131 232 -167 563 -197 359 -34 615 -41 1452 -41 837 0 1093 7
1452 41 331 30 433 66 563 197 92 92 124 149 154 272 117 473 117 1657 0 2130
-30 123 -62 180 -154 272 -98 98 -166 135 -310 163 -109 22 -331 44 -610 60
-176 11 -1578 21 -1815 14z m861 -1236 c318 -183 578 -335 578 -338 0 -6
-1152 -670 -1162 -670 -4 0 -7 302 -7 670 0 369 3 670 7 670 3 0 266 -150 584
-332z"/>
</g>
</svg>
